<svg width="88" height="87" viewBox="0 0 88 87" fill="none" xmlns="http://www.w3.org/2000/svg">
<path d="M43.6932 85C66.8892 85 85.6932 66.1959 85.6932 43C85.6932 19.804 66.8892 1 43.6932 1C20.4973 1 1.69324 19.804 1.69324 43C1.69324 66.1959 20.4973 85 43.6932 85Z" fill="#1BBA00"/>
<path opacity="0.2" d="M79.0373 51.5765C83.6045 32.2259 71.6201 12.8368 52.2695 8.26961C32.919 3.70246 13.5298 15.6868 8.96267 35.0374C4.39552 54.388 16.3798 73.7771 35.7304 78.3443C55.081 82.9114 74.4702 70.9271 79.0373 51.5765Z" fill="black"/>
<path d="M39.1728 60.2719C38.6998 60.2821 38.2293 60.1989 37.7885 60.0269C37.3476 59.855 36.945 59.5978 36.6038 59.27L21.7803 44.7548C21.0989 44.0938 20.708 43.1893 20.6935 42.2402C20.6791 41.2911 21.0423 40.3751 21.7032 39.6937C22.3641 39.0123 23.2686 38.6214 24.2178 38.607C25.1669 38.5925 26.0829 38.9557 26.7643 39.6166L38.9159 51.5114L59.9309 28.0558C60.5753 27.4064 61.4443 27.029 62.3588 27.0016C63.2732 26.9742 64.1633 27.2988 64.8454 27.9084C65.5276 28.518 65.9497 29.3662 66.0248 30.278C66.0998 31.1898 65.8221 32.0956 65.2488 32.8086L41.7419 59.0388C41.4177 59.4015 41.0222 59.6936 40.5803 59.8969C40.1383 60.1002 39.6592 60.2103 39.1728 60.2205V60.2719Z" fill="white"/>
</svg>
