<svg width="88" height="87" viewBox="0 0 88 87" fill="none" xmlns="http://www.w3.org/2000/svg">
<path d="M43.6931 85.0002C66.8891 85.0002 85.6931 66.1962 85.6931 43.0002C85.6931 19.8043 66.8891 1.00024 43.6931 1.00024C20.4971 1.00024 1.69312 19.8043 1.69312 43.0002C1.69312 66.1962 20.4971 85.0002 43.6931 85.0002Z" fill="#F74C4B"/>
<path opacity="0.2" d="M79.0373 51.5765C83.6045 32.2259 71.6201 12.8367 52.2695 8.26955C32.919 3.7024 13.5298 15.6868 8.96267 35.0373C4.39552 54.3879 16.3798 73.7771 35.7304 78.3442C55.081 82.9114 74.4702 70.927 79.0373 51.5765Z" fill="black"/>
<path d="M28.0444 27.467L28.0338 27.4789L28.0241 27.4915C27.6512 27.9722 27.4665 28.5725 27.5047 29.1797C27.5429 29.7869 27.8013 30.3593 28.2315 30.7895C28.2315 30.7895 28.2315 30.7895 28.2315 30.7895L40.4524 43.0124L28.2315 55.2353L28.2314 55.2353L28.2254 55.2415C27.7703 55.7127 27.5184 56.3439 27.5241 56.9989C27.5298 57.654 27.7926 58.2807 28.2558 58.7439C28.7191 59.2072 29.3457 59.4699 30.0008 59.4756C30.6559 59.4813 31.287 59.2295 31.7582 58.7744L31.7583 58.7744L31.7644 58.7683L43.9873 46.5473L56.2103 58.7683L56.2212 58.7793L56.2328 58.7895L56.4207 58.9554L56.4326 58.9659L56.4452 58.9757C56.9259 59.3486 57.5262 59.5333 58.1334 59.4951C58.7406 59.4569 59.313 59.1985 59.7432 58.7683L59.7542 58.7573L59.7644 58.7457L59.9303 58.5578L59.9408 58.5459L59.9506 58.5333C60.3235 58.0526 60.5082 57.4523 60.47 56.8452C60.4318 56.238 60.1734 55.6656 59.7432 55.2353C59.7432 55.2353 59.7432 55.2353 59.7432 55.2353L47.5222 43.0124L59.7404 30.7924C59.9774 30.5625 60.1666 30.288 60.2969 29.9846C60.4279 29.6798 60.4968 29.3519 60.4997 29.0202C60.5025 28.6884 60.4393 28.3594 60.3137 28.0524C60.1881 27.7453 60.0026 27.4664 59.768 27.2318C59.5334 26.9972 59.2544 26.8117 58.9474 26.6861C58.6403 26.5604 58.3113 26.4972 57.9796 26.5001C57.6478 26.503 57.32 26.5719 57.0151 26.7028C56.7117 26.8332 56.4371 27.0224 56.2073 27.2595L43.9873 39.4775L31.7644 27.2565L31.7535 27.2456L31.7418 27.2353L31.554 27.0694L31.5421 27.0589L31.5295 27.0492C31.0488 26.6763 30.4485 26.4916 29.8413 26.5298C29.2341 26.5679 28.6617 26.8264 28.2315 27.2565L28.2205 27.2675L28.2102 27.2792L28.0444 27.467Z" fill="white" stroke="white"/>
</svg>
