<svg width="88" height="87" viewBox="0 0 88 87" fill="none" xmlns="http://www.w3.org/2000/svg">
<path d="M43.6932 85.0003C66.8892 85.0003 85.6932 66.1962 85.6932 43.0003C85.6932 19.8043 66.8892 1.00027 43.6932 1.00027C20.4973 1.00027 1.69324 19.8043 1.69324 43.0003C1.69324 66.1962 20.4973 85.0003 43.6932 85.0003Z" fill="#ffc107"/>
<path opacity="0.2" d="M79.0373 51.5765C83.6045 32.2259 71.6201 12.8367 52.2695 8.26955C32.919 3.7024 13.5298 15.6868 8.96267 35.0373C4.39552 54.3879 16.3798 73.7771 35.7304 78.3442C55.081 82.9114 74.4702 70.927 79.0373 51.5765Z" fill="black"/>
<path d="M56.9998 47.3335C52.3988 47.3335 48.6663 51.064 48.6663 55.6665C48.6663 60.268 52.3988 64 56.9998 64C61.6007 64 65.3333 60.268 65.3333 55.6665C65.3333 51.064 61.6007 47.3335 56.9998 47.3335ZM61.9998 56.9165H55.7498V50.6665H58.2498V54.4165H61.9998V56.9165Z" fill="white"/>
<path d="M55.3333 24H31.9998C30.1672 24 28.6663 25.5005 28.6663 27.3335V57.3335C28.6663 59.166 30.1672 60.6665 31.9998 60.6665H45.3333V55.6665C45.3333 49.2345 50.5677 44 56.9998 44H58.6663V27.3335C58.6663 25.5005 57.1658 24 55.3333 24ZM33.6663 29H50.3333V32.3335H33.6663V29ZM40.3333 52.3335H33.6663V49H40.3333V52.3335ZM43.6663 45.6665H33.6663V42.3335H43.6663V45.6665ZM53.6663 39H33.6663V35.6665H53.6663V39Z" fill="white"/>
</svg>
