<svg width="424" height="357" viewBox="0 0 424 357" fill="none" xmlns="http://www.w3.org/2000/svg">
<mask id="mask0_301_18068" style="mask-type:luminance" maskUnits="userSpaceOnUse" x="0" y="0" width="424" height="357">
<rect width="423.108" height="356.648" fill="white"/>
</mask>
<g mask="url(#mask0_301_18068)">
<circle cx="215.941" cy="178.324" r="178.324" fill="#F1F0FF"/>
<rect x="205.559" y="100.581" width="109.347" height="169.327" fill="white"/>
<path d="M183.641 203.931H295.757" stroke="black"/>
<path d="M183.641 215.004H295.757" stroke="black"/>
<path d="M183.641 226.076H295.757" stroke="black"/>
<path d="M183.641 237.149H295.757" stroke="black"/>
<ellipse cx="260.231" cy="149.949" rx="28.606" ry="28.606" fill="#F2F2F2"/>
<rect opacity="0.7" x="295.758" y="160.792" width="45.215" height="41.986" fill="#98B9F2"/>
<path d="M307.498 181.95L313.777 179.49V180.457L308.642 182.396L313.777 184.34V185.307L307.498 182.842V181.95ZM319.336 177.315H320.152L317.649 185.205H316.833L319.336 177.315ZM329.385 182.853L323.106 185.307V184.34L328.236 182.396L323.106 180.457V179.49L329.385 181.95V182.853Z" fill="white"/>
<rect x="16.6211" y="17.3018" width="244.071" height="160.561" stroke="black"/>
<path d="M16.6211 25.8379H260.692" stroke="black"/>
<rect x="34.3828" y="40.1396" width="73.36" height="73.36" stroke="black"/>
<path d="M121.816 46.5996H233.932" stroke="black"/>
<path d="M121.816 57.6729H233.932" stroke="black"/>
<path d="M121.816 68.7461H233.932" stroke="black"/>
<path d="M121.816 79.8184H233.932" stroke="black"/>
<path opacity="0.44" fill-rule="evenodd" clip-rule="evenodd" d="M71.0639 59.5176L51.0859 94.1176H91.0419L71.0639 59.5176Z" fill="#918EF4"/>
<ellipse cx="21.9276" cy="21.6844" rx="2.076" ry="2.076" fill="#AB8DE5"/>
<circle cx="29.0799" cy="21.6844" r="2.076" fill="#73E5E2"/>
<circle cx="36.2283" cy="21.6844" r="2.076" fill="#50B89D"/>
<path fill-rule="evenodd" clip-rule="evenodd" d="M124.122 148.218L131.043 142.105H123.984L124.122 148.218Z" fill="#AB8DE5"/>
<path fill-rule="evenodd" clip-rule="evenodd" d="M117.203 131.032C117.203 127.783 118.352 125.01 120.649 122.712C122.946 120.415 125.719 119.267 128.968 119.267H158.958C162.207 119.267 164.98 120.415 167.277 122.712C169.574 125.01 170.723 127.783 170.723 131.032C170.723 134.28 169.574 137.053 167.277 139.351C164.98 141.648 162.207 142.797 158.958 142.797H128.968C125.719 142.797 122.946 141.648 120.649 139.351C118.352 137.053 117.203 134.28 117.203 131.032Z" fill="#AB8DE5"/>
<circle cx="136.81" cy="131.032" r="2.076" fill="white"/>
<ellipse cx="143.963" cy="131.032" rx="2.076" ry="2.076" fill="white"/>
<ellipse cx="151.115" cy="131.032" rx="2.076" ry="2.076" fill="white"/>
<path fill-rule="evenodd" clip-rule="evenodd" d="M343.28 79.0105L336.359 72.8975H343.418L343.28 79.0105Z" fill="#98B9F2"/>
<path fill-rule="evenodd" clip-rule="evenodd" d="M350.2 61.8246C350.2 65.0734 349.051 67.8464 346.754 70.1437C344.457 72.4409 341.684 73.5896 338.435 73.5896H308.445C305.196 73.5896 302.423 72.4409 300.126 70.1437C297.828 67.8464 296.68 65.0734 296.68 61.8246C296.68 58.5758 297.828 55.8027 300.126 53.5055C302.423 51.2082 305.196 50.0596 308.445 50.0596L338.435 50.0596C341.684 50.0596 344.457 51.2082 346.754 53.5055C349.051 55.8027 350.2 58.5758 350.2 61.8246Z" fill="#98B9F2"/>
<ellipse cx="330.592" cy="61.825" rx="2.076" ry="2.076" fill="white"/>
<ellipse cx="323.439" cy="61.825" rx="2.076" ry="2.076" fill="white"/>
<ellipse cx="316.287" cy="61.825" rx="2.076" ry="2.076" fill="white"/>
<ellipse cx="339.588" cy="19.6092" rx="2.076" ry="2.076" fill="#918EF4"/>
<ellipse cx="343.971" cy="28.1444" rx="2.076" ry="2.076" fill="#918EF4"/>
<ellipse cx="296.218" cy="112.347" rx="3.23" ry="3.23" fill="#918EF4"/>
<ellipse cx="315.136" cy="123.419" rx="3.23" ry="3.23" fill="#918EF4"/>
<ellipse cx="24.4644" cy="127.111" rx="3.23" ry="3.23" fill="#F98B67"/>
<path fill-rule="evenodd" clip-rule="evenodd" d="M303.693 274.638V274.177L302.586 272.793L300.025 269.683L297.303 266.389C297.303 266.389 294.682 264.576 294.009 264.262C291.606 263.019 288.954 262.335 286.249 262.262C284.473 262.262 277.833 262.53 277.82 263.646C277.82 265.302 287.12 271.573 293.936 274.618C296.929 274.638 303.693 274.638 303.693 274.638Z" fill="#1F161E"/>
<path fill-rule="evenodd" clip-rule="evenodd" d="M302.286 274.638C292.823 267.357 273.505 227.646 278.46 212.928C289.007 218.303 300.579 236.837 306.037 252.487C306.33 253.506 306.566 254.541 306.743 255.587L308.958 265.737L309.493 274.656L302.286 274.638Z" fill="#6F9CEB"/>
<path fill-rule="evenodd" clip-rule="evenodd" d="M308.746 274.638C305.553 272.045 304.534 264.368 304.506 261.503C304.455 256.156 305.276 252.215 309.849 246.333C314.422 240.451 313.203 230.692 319.275 224.108C325.347 217.523 329.37 215.688 336.575 215.688C343.78 215.688 346.075 227.37 346.033 230.309C345.95 242.165 338.48 243.845 333.922 249.501C330.614 253.607 330.356 256.966 329.354 258.887C323.984 269.231 319.619 273.121 316.389 274.639" fill="#918EF4"/>
<path d="M310.508 273.779C310.6 253.557 331.908 223.179 336.465 218.63" stroke="white" stroke-width="0.4" stroke-linecap="round" stroke-linejoin="round"/>
<path d="M311.653 264.589C309.295 262.019 307.153 254.734 307.473 252.842" stroke="white" stroke-width="0.4" stroke-linecap="round" stroke-linejoin="round"/>
<path d="M305.616 272.893C302.275 266.973 286.426 238.109 280.516 216.849" stroke="white" stroke-width="0.4" stroke-linecap="round" stroke-linejoin="round"/>
<path fill-rule="evenodd" clip-rule="evenodd" d="M316.409 274.637H326.338L318.038 305.55H295.827L287.656 274.637H316.409" fill="#B37361"/>
<path d="M281.066 264.27C285.906 264.602 291.996 264.824 296.292 267.753" stroke="white" stroke-width="0.4" stroke-linecap="round" stroke-linejoin="round"/>
<path fill-rule="evenodd" clip-rule="evenodd" d="M357.788 148.104C356.621 153.673 348.141 222.751 350.913 239.25C353.685 255.749 398.897 290.32 400.876 290.924C403.183 289.232 406.576 283.681 406.576 283.681C406.576 283.681 373.426 245.253 372.794 243.712C372.162 242.171 380.056 153.18 380.056 153.18L357.788 148.104Z" fill="#7472C1"/>
<path fill-rule="evenodd" clip-rule="evenodd" d="M411.778 160.676L377.953 298.634H366.562L378.107 154.715L411.778 160.676Z" fill="#AB8DE5"/>
<path fill-rule="evenodd" clip-rule="evenodd" d="M387.754 81.6875C392.423 81.6875 416.78 82.4765 421.181 91.0485C425.582 99.6205 421.435 139.249 418.699 140.781C417.223 141.607 416.821 140.803 416.392 142.48C415.963 144.157 411.778 160.673 411.778 160.673C409.12 160.747 370.378 154.91 357.796 148.087C357.87 146.187 358.479 141.259 358.479 140.88C356.809 141.562 354.788 141.705 354.234 140.88C349.325 133.446 356.642 94.6955 361.893 86.8975C364.124 83.5565 380.254 81.7105 387.754 81.6875Z" fill="#6F9CEB"/>
<path fill-rule="evenodd" clip-rule="evenodd" d="M403.789 141.852C404.933 141.852 414.784 148.773 413.939 152.173C414.631 149.442 416.809 141.003 416.809 141.003C415.873 141.183 404.629 141.866 403.789 141.852Z" fill="#1F161E"/>
<path fill-rule="evenodd" clip-rule="evenodd" d="M393.784 86.2104C393.784 87.7104 381.922 87.7104 381.922 86.2104V70.9844H393.784V86.2104Z" fill="#F8CDBA"/>
<path fill-rule="evenodd" clip-rule="evenodd" d="M386.977 74.5874C387.9 74.5874 393.782 77.1874 393.782 78.6384V70.9844C392.315 70.9844 386.977 74.5874 386.977 74.5874Z" fill="#1F161E"/>
<circle cx="385.352" cy="64.1601" r="11.539" fill="#F8CDBA"/>
<path fill-rule="evenodd" clip-rule="evenodd" d="M381.451 47.292C375.527 47.292 371.836 51.011 371.836 55.777C371.836 59.74 372.796 61.983 373.926 62.55C374.641 58.702 376.196 56.921 377.483 56.155C378.483 56.921 380.196 58.776 382.483 59.348C384.77 59.92 390.728 59.809 395.54 63.307C397.113 61.877 398.682 60.017 398.682 57.826C398.682 55.635 397.713 52.885 392.015 51.297C388.252 50.249 387.726 47.292 381.451 47.292Z" fill="#1F161E"/>
<ellipse cx="374.572" cy="66.5364" rx="2.021" ry="1.052" fill="#FA9E9F"/>
<ellipse cx="387.283" cy="66.5364" rx="2.021" ry="1.052" fill="#FA9E9F"/>
<path d="M379.506 64.3535C379.128 64.8935 377.199 67.1585 379.234 68.0725" stroke="#1F161E" stroke-linecap="round"/>
<path d="M383.309 70.7162C384.144 70.5107 384.872 69.9985 385.348 69.2812" stroke="#1F161E" stroke-linecap="round"/>
<circle cx="396.019" cy="65.4893" r="2.667" fill="#F8CDBA"/>
<path d="M404.056 104.393C403.848 106.94 403.036 119.526 403.341 121.183C399.47 122.53 364.026 139.338 357.895 141.183" stroke="#1F161E" stroke-linecap="round"/>
<path d="M362.894 100.42C362.077 103.271 359.328 116.213 361.261 122.22" stroke="#1F161E" stroke-linecap="round"/>
<path d="M371.941 135.296C373.787 136.596 391.476 144.422 415.934 141.469" stroke="#1F161E" stroke-linecap="round"/>
<path fill-rule="evenodd" clip-rule="evenodd" d="M370.25 122.225C371.436 122.414 367.569 119.325 365.378 120.476C363.187 121.627 360.234 126.825 360.838 128.029C361.002 128.472 361.359 128.817 361.808 128.965C362.256 129.114 362.748 129.052 363.145 128.795C363.739 128.412 368.182 121.892 370.25 122.225Z" fill="#F8CDBA"/>
<path fill-rule="evenodd" clip-rule="evenodd" d="M406.198 284.248C406.83 284.709 412.436 288.502 412.482 290.892C412.528 293.282 407.259 301.204 406.198 301.43C405.137 301.656 404.38 300.761 404.38 299.16C404.38 297.559 406.38 294.754 406.115 293.508C405.85 292.262 403.259 289.983 401.93 289.942" fill="#EBEBEB" fill-opacity="0.25098"/>
<path fill-rule="evenodd" clip-rule="evenodd" d="M376.869 298.634C376.869 299.734 377.506 306.625 376.232 307.266C374.958 307.907 360.905 308.286 360.268 307.649C359.632 307.012 359.244 305.67 359.807 305.287C360.37 304.904 365.807 303.815 366.543 303.308C367.629 302.007 368.129 300.316 367.927 298.634" fill="#EBEBEB" fill-opacity="0.25098"/>
<rect x="12" y="247.457" width="89.222" height="45.257" fill="#B37361"/>
<path fill-rule="evenodd" clip-rule="evenodd" d="M145.176 226.246C145.564 228.553 152.143 281.293 153.209 282.165C154.275 283.037 165.592 284.97 166.561 283.521C166.755 281.214 167.022 244.433 167.622 241.143" fill="#1F161E"/>
<path fill-rule="evenodd" clip-rule="evenodd" d="M17.8845 215.242C13.3215 212.995 22.8355 257.537 47.8745 257.537C72.9135 257.537 115.06 219.395 121.884 219.395C136.948 219.395 172.608 248.97 175.404 248.97C177.545 246.829 181.826 243.083 181.826 241.588C181.826 240.093 147.684 183.915 122.137 183.915C112.232 183.928 28.1875 220.331 17.8845 215.242Z" fill="#7472C1"/>
<path fill-rule="evenodd" clip-rule="evenodd" d="M31.9727 216.002C36.9787 214.867 43.2077 211.928 48.7207 208.924C33.7207 213.824 21.4297 216.998 17.8817 215.245C15.4637 214.055 16.9957 225.977 22.6817 237.461C21.6507 235.239 20.1837 218.694 31.9727 216.002Z" fill="#1F161E"/>
<path fill-rule="evenodd" clip-rule="evenodd" d="M43.0106 137.86C46.9556 137.966 67.4916 137.36 73.1206 142.723C77.2956 146.7 90.2796 180.902 92.2816 192.912C83.5616 197.346 20.6616 227.46 1.20058 214.219C0.771584 203.93 2.76958 163.029 15.5006 141.579C20.1546 138.478 39.2186 137.763 43.0106 137.86Z" fill="white"/>
<path fill-rule="evenodd" clip-rule="evenodd" d="M51.0078 128.073H39.0078V140.964C39.0078 144.194 51.0078 144.164 51.0078 140.964V128.073Z" fill="#F8CDBA"/>
<path fill-rule="evenodd" clip-rule="evenodd" d="M39.0118 135.856C39.0118 134.426 42.9748 130.832 45.4248 130.956C45.4848 129.364 39.8248 127.076 39.8248 127.076L39.0078 129.276L39.0118 135.856Z" fill="#1F161E"/>
<path fill-rule="evenodd" clip-rule="evenodd" d="M63.5718 128.074C63.8414 126.825 63.9775 125.551 63.9778 124.274C63.9778 114.76 56.5448 107.046 47.3678 107.046C38.1908 107.046 30.7578 114.76 30.7578 124.274C30.7578 125.547 30.8936 126.82 31.1628 128.069L63.5718 128.074Z" fill="#1F161E"/>
<path fill-rule="evenodd" clip-rule="evenodd" d="M59.1955 116.461C57.1605 116.152 55.1305 114.551 53.7145 113.504C45.6405 119.419 40.4685 119.494 39.9095 119.494C39.3505 119.494 37.0765 122.761 36.0295 123.13L35.9375 123.075C36.7719 127.777 40.1931 131.604 44.7731 132.957C49.3531 134.311 54.3047 132.958 57.5609 129.465C60.8171 125.971 61.8183 120.937 60.1465 116.463C59.8311 116.502 59.512 116.502 59.1965 116.463L59.1955 116.461Z" fill="#F8CDBA"/>
<circle cx="38.3727" cy="104.295" r="4.9" fill="#1F161E"/>
<path d="M40.5532 119.233C39.4508 119.282 38.582 120.19 38.582 121.293C38.582 122.397 39.4508 123.305 40.5532 123.353" stroke="#1F161E" stroke-linecap="round"/>
<path d="M56.2617 119.496C56.8617 120.303 58.4207 121.72 56.2617 123.219" stroke="#1F161E" stroke-linecap="round"/>
<path d="M49.7143 124.3C49.6592 125.357 50.2849 126.332 51.2693 126.722" stroke="#1F161E" stroke-linecap="round"/>
<ellipse cx="45.694" cy="123.456" rx="1.901" ry="0.987" fill="#FA9E9F"/>
<ellipse cx="59.8268" cy="123.456" rx="1.901" ry="0.987" fill="#FA9E9F"/>
<path fill-rule="evenodd" clip-rule="evenodd" d="M72.6875 173.511L85.5095 170.211C86.7415 172.306 92.7395 192.888 92.7395 192.888L72.9475 201.231C73.2045 197.332 73.9835 179.477 72.6875 173.511Z" fill="#F8CDBA"/>
<path d="M27.7283 170.285C27.2902 173.738 26.5963 177.154 25.6523 180.505" stroke="#1F161E" stroke-linecap="round"/>
<path d="M72.6844 173.511C72.3754 171.07 70.5664 157.317 67.4844 150.077" stroke="#1F161E" stroke-linecap="round"/>
<path fill-rule="evenodd" clip-rule="evenodd" d="M72.6875 173.511L85.5095 170.211C86.7415 172.306 92.7395 192.888 92.7395 192.888L72.9475 201.231C73.2045 197.332 73.9835 179.477 72.6875 173.511Z" fill="#F8CDBA"/>
<path fill-rule="evenodd" clip-rule="evenodd" d="M175.785 247.88C176.071 248.341 179.891 253.029 181.243 253.08C182.595 253.131 190.803 247.571 190.443 246.38C190.083 245.189 184.934 245.965 184.048 245.545C182.742 244.722 181.649 243.601 180.86 242.274" fill="#1F161E"/>
<path fill-rule="evenodd" clip-rule="evenodd" d="M155.6 282.655C155.5 283.167 154.982 289.207 155.918 290.185C156.854 291.163 166.618 292.861 167.19 291.749C167.762 290.637 163.499 287.624 163.171 286.711C162.809 285.214 162.809 283.651 163.171 282.153" fill="#1F161E"/>
<path fill-rule="evenodd" clip-rule="evenodd" d="M140.288 194.181H96.8398L107.184 166.77H150.632L140.288 194.181Z" fill="#969696"/>
<rect x="60.6328" y="193.147" width="43.448" height="1.033" fill="#969696"/>
<path fill-rule="evenodd" clip-rule="evenodd" d="M25.6526 180.509C24.8176 183.628 20.7616 197.009 22.4136 199.315C24.0656 201.621 65.4326 196.394 76.5016 192.948C79.3206 192.025 81.4106 189.608 82.6606 189.294C85.9856 188.73 89.2009 190.764 90.1166 194.009C85.7006 196.15 21.8786 228.733 1.20063 214.232C-2.70737 211.432 4.14863 177.289 4.46263 175.568C7.95363 175.988 25.6526 180.509 25.6526 180.509Z" fill="#F8CDBA"/>
<path d="M73.2773 193.78C74.5233 193.48 75.6124 193.194 76.5073 192.917C79.3263 191.994 81.4163 189.577 82.6663 189.263C85.9913 188.699 89.2066 190.732 90.1223 193.978" stroke="#1F161E" stroke-linecap="round"/>
</g>
</svg>
